<svg preserveAspectRatio="none" width="100%" height="100%" overflow="visible" style="display: block;" viewBox="0 0 24 24" fill="none" xmlns="http://www.w3.org/2000/svg">
<path id="logo vector" opacity="0.6" d="M19.2 0H4.8C2.16 0 0 2.16 0 4.8V19.2C0 21.84 2.16 24 4.8 24H19.2C21.84 24 24 21.84 24 19.2V4.8C24 2.16 21.84 0 19.2 0ZM14.1096 17.76H9.6C7.7448 17.76 6.24 16.2552 6.24 14.4V7.68C6.24 6.8856 6.8856 6.24 7.68 6.24C8.4744 6.24 9.12 6.8856 9.12 7.68V13.68C9.12 14.3424 9.6576 14.88 10.32 14.88H13.68C13.8648 14.88 14.0376 14.8344 14.1936 14.76C13.872 15.1968 13.68 15.7344 13.68 16.32C13.68 16.8504 13.8384 17.3448 14.1096 17.76ZM14.88 13.68V7.68C14.88 6.8856 15.5256 6.24 16.32 6.24C17.1144 6.24 17.76 6.8856 17.76 7.68V14.1096C17.3448 13.8384 16.8504 13.68 16.32 13.68C15.7368 13.68 15.1992 13.872 14.76 14.1936C14.8344 14.0376 14.88 13.8648 14.88 13.68ZM18 17.76H16.32C15.5256 17.76 14.88 17.1144 14.88 16.32C14.88 15.5256 15.5256 14.88 16.32 14.88C17.1144 14.88 17.76 15.5256 17.76 16.32H18C18.396 16.32 18.72 16.644 18.72 17.04C18.72 17.436 18.396 17.76 18 17.76Z" fill="var(--fill-0, black)"/>
</svg>
